<svg width="34" height="34" viewBox="0 0 34 34" fill="none" xmlns="http://www.w3.org/2000/svg">
<path d="M17 0C13.6377 -4.00948e-08 10.3509 0.997032 7.55531 2.86502C4.75967 4.733 2.58074 7.38804 1.29405 10.4944C0.00735875 13.6007 -0.329298 17.0189 0.32665 20.3165C0.982598 23.6142 2.60169 26.6433 4.97918 29.0208C7.35667 31.3983 10.3858 33.0174 13.6835 33.6733C16.9811 34.3293 20.3993 33.9926 23.5056 32.706C26.612 31.4193 29.267 29.2403 31.135 26.4447C33.003 23.6491 34 20.3623 34 17L25.5 17C25.5 18.6811 25.0015 20.3245 24.0675 21.7223C23.1335 23.1202 21.806 24.2096 20.2528 24.853C18.6996 25.4963 16.9906 25.6646 15.3417 25.3367C13.6929 25.0087 12.1783 24.1992 10.9896 23.0104C9.80084 21.8217 8.9913 20.3071 8.66332 18.6583C8.33535 17.0094 8.50368 15.3004 9.14702 13.7472C9.79037 12.194 10.8798 10.8665 12.2777 9.93251C13.6755 8.99852 15.3189 8.5 17 8.5L17 0Z" fill="white"/>
<path d="M17 0C14.7675 -2.6622e-08 12.5569 0.439718 10.4944 1.29405C8.43185 2.14838 6.55778 3.40059 4.97918 4.97919C3.40059 6.55778 2.14838 8.43185 1.29405 10.4944C0.439717 12.5569 -3.37094e-07 14.7675 0 17L8.5 17C8.5 15.8838 8.71986 14.7785 9.14702 13.7472C9.57419 12.7159 10.2003 11.7789 10.9896 10.9896C11.7789 10.2003 12.7159 9.57419 13.7472 9.14702C14.7785 8.71986 15.8838 8.5 17 8.5L17 0Z" fill="#5CE1E6"/>
<ellipse cx="17" cy="17.0002" rx="5.3125" ry="5.3125" fill="#5CE1E6"/>
</svg>
