<svg width="123" height="34" viewBox="0 0 123 34" fill="none" xmlns="http://www.w3.org/2000/svg">
<path d="M44.7762 17.556C45.4842 17.688 46.0662 18.042 46.5222 18.618C46.9782 19.194 47.2062 19.854 47.2062 20.598C47.2062 21.27 47.0382 21.864 46.7022 22.38C46.3782 22.884 45.9042 23.28 45.2802 23.568C44.6562 23.856 43.9182 24 43.0662 24H37.6482V11.436H42.8322C43.6842 11.436 44.4162 11.574 45.0282 11.85C45.6522 12.126 46.1202 12.51 46.4322 13.002C46.7562 13.494 46.9182 14.052 46.9182 14.676C46.9182 15.408 46.7202 16.02 46.3242 16.512C45.9402 17.004 45.4242 17.352 44.7762 17.556ZM40.1682 16.62H42.4722C43.0722 16.62 43.5342 16.488 43.8582 16.224C44.1822 15.948 44.3442 15.558 44.3442 15.054C44.3442 14.55 44.1822 14.16 43.8582 13.884C43.5342 13.608 43.0722 13.47 42.4722 13.47H40.1682V16.62ZM42.7062 21.948C43.3182 21.948 43.7922 21.804 44.1282 21.516C44.4762 21.228 44.6502 20.82 44.6502 20.292C44.6502 19.752 44.4702 19.332 44.1102 19.032C43.7502 18.72 43.2642 18.564 42.6522 18.564H40.1682V21.948H42.7062ZM51.7346 10.68V24H49.2146V10.68H51.7346ZM63.6383 14.028V24H61.1003V22.74C60.7763 23.172 60.3503 23.514 59.8223 23.766C59.3063 24.006 58.7423 24.126 58.1303 24.126C57.3503 24.126 56.6603 23.964 56.0603 23.64C55.4603 23.304 54.9863 22.818 54.6383 22.182C54.3023 21.534 54.1343 20.766 54.1343 19.878V14.028H56.6543V19.518C56.6543 20.31 56.8523 20.922 57.2483 21.354C57.6443 21.774 58.1843 21.984 58.8683 21.984C59.5643 21.984 60.1103 21.774 60.5063 21.354C60.9023 20.922 61.1003 20.31 61.1003 19.518V14.028H63.6383ZM75.3947 18.798C75.3947 19.158 75.3707 19.482 75.3227 19.77H68.0327C68.0927 20.49 68.3447 21.054 68.7887 21.462C69.2327 21.87 69.7787 22.074 70.4267 22.074C71.3627 22.074 72.0287 21.672 72.4247 20.868H75.1427C74.8547 21.828 74.3027 22.62 73.4867 23.244C72.6707 23.856 71.6687 24.162 70.4807 24.162C69.5207 24.162 68.6567 23.952 67.8887 23.532C67.1327 23.1 66.5387 22.494 66.1067 21.714C65.6867 20.934 65.4767 20.034 65.4767 19.014C65.4767 17.982 65.6867 17.076 66.1067 16.296C66.5267 15.516 67.1147 14.916 67.8707 14.496C68.6267 14.076 69.4967 13.866 70.4807 13.866C71.4287 13.866 72.2747 14.07 73.0187 14.478C73.7747 14.886 74.3567 15.468 74.7647 16.224C75.1847 16.968 75.3947 17.826 75.3947 18.798ZM72.7847 18.078C72.7727 17.43 72.5387 16.914 72.0827 16.53C71.6267 16.134 71.0687 15.936 70.4087 15.936C69.7847 15.936 69.2567 16.128 68.8247 16.512C68.4047 16.884 68.1467 17.406 68.0507 18.078H72.7847Z" fill="white"/>
<path d="M84.3621 17.556C85.0701 17.688 85.6521 18.042 86.1081 18.618C86.5641 19.194 86.7921 19.854 86.7921 20.598C86.7921 21.27 86.6241 21.864 86.2881 22.38C85.9641 22.884 85.4901 23.28 84.8661 23.568C84.2421 23.856 83.5041 24 82.6521 24H77.2341V11.436H82.4181C83.2701 11.436 84.0021 11.574 84.6141 11.85C85.2381 12.126 85.7061 12.51 86.0181 13.002C86.3421 13.494 86.5041 14.052 86.5041 14.676C86.5041 15.408 86.3061 16.02 85.9101 16.512C85.5261 17.004 85.0101 17.352 84.3621 17.556ZM79.7541 16.62H82.0581C82.6581 16.62 83.1201 16.488 83.4441 16.224C83.7681 15.948 83.9301 15.558 83.9301 15.054C83.9301 14.55 83.7681 14.16 83.4441 13.884C83.1201 13.608 82.6581 13.47 82.0581 13.47H79.7541V16.62ZM82.2921 21.948C82.9041 21.948 83.3781 21.804 83.7141 21.516C84.0621 21.228 84.2361 20.82 84.2361 20.292C84.2361 19.752 84.0561 19.332 83.6961 19.032C83.3361 18.72 82.8501 18.564 82.2381 18.564H79.7541V21.948H82.2921ZM88.1525 18.978C88.1525 17.97 88.3505 17.076 88.7465 16.296C89.1545 15.516 89.7005 14.916 90.3845 14.496C91.0805 14.076 91.8545 13.866 92.7065 13.866C93.4505 13.866 94.0985 14.016 94.6505 14.316C95.2145 14.616 95.6645 14.994 96.0005 15.45V14.028H98.5385V24H96.0005V22.542C95.6765 23.01 95.2265 23.4 94.6505 23.712C94.0865 24.012 93.4325 24.162 92.6885 24.162C91.8485 24.162 91.0805 23.946 90.3845 23.514C89.7005 23.082 89.1545 22.476 88.7465 21.696C88.3505 20.904 88.1525 19.998 88.1525 18.978ZM96.0005 19.014C96.0005 18.402 95.8805 17.88 95.6405 17.448C95.4005 17.004 95.0765 16.668 94.6685 16.44C94.2605 16.2 93.8225 16.08 93.3545 16.08C92.8865 16.08 92.4545 16.194 92.0585 16.422C91.6625 16.65 91.3385 16.986 91.0865 17.43C90.8465 17.862 90.7265 18.378 90.7265 18.978C90.7265 19.578 90.8465 20.106 91.0865 20.562C91.3385 21.006 91.6625 21.348 92.0585 21.588C92.4665 21.828 92.8985 21.948 93.3545 21.948C93.8225 21.948 94.2605 21.834 94.6685 21.606C95.0765 21.366 95.4005 21.03 95.6405 20.598C95.8805 20.154 96.0005 19.626 96.0005 19.014ZM106.526 13.884C107.714 13.884 108.674 14.262 109.406 15.018C110.138 15.762 110.504 16.806 110.504 18.15V24H107.984V18.492C107.984 17.7 107.786 17.094 107.39 16.674C106.994 16.242 106.454 16.026 105.77 16.026C105.074 16.026 104.522 16.242 104.114 16.674C103.718 17.094 103.52 17.7 103.52 18.492V24H101V14.028H103.52V15.27C103.856 14.838 104.282 14.502 104.798 14.262C105.326 14.01 105.902 13.884 106.526 13.884ZM118.804 24L115.42 19.752V24H112.9V10.68H115.42V18.258L118.768 14.028H122.044L117.652 19.032L122.08 24H118.804Z" fill="#5CE1E6"/>
<path d="M17 0C13.6377 -4.00948e-08 10.3509 0.997032 7.55531 2.86502C4.75967 4.733 2.58074 7.38804 1.29405 10.4944C0.00735875 13.6007 -0.329298 17.0189 0.32665 20.3165C0.982598 23.6142 2.60169 26.6433 4.97918 29.0208C7.35667 31.3983 10.3858 33.0174 13.6835 33.6733C16.9811 34.3293 20.3993 33.9926 23.5056 32.706C26.612 31.4193 29.267 29.2403 31.135 26.4447C33.003 23.6491 34 20.3623 34 17L25.5 17C25.5 18.6811 25.0015 20.3245 24.0675 21.7223C23.1335 23.1202 21.806 24.2096 20.2528 24.853C18.6996 25.4963 16.9906 25.6646 15.3417 25.3367C13.6929 25.0087 12.1783 24.1992 10.9896 23.0104C9.80084 21.8217 8.9913 20.3071 8.66332 18.6583C8.33535 17.0094 8.50368 15.3004 9.14702 13.7472C9.79037 12.194 10.8798 10.8665 12.2777 9.93251C13.6755 8.99852 15.3189 8.5 17 8.5L17 0Z" fill="white"/>
<path d="M17 0C14.7675 -2.6622e-08 12.5569 0.439718 10.4944 1.29405C8.43185 2.14838 6.55778 3.40059 4.97918 4.97919C3.40059 6.55778 2.14838 8.43185 1.29405 10.4944C0.439717 12.5569 -3.37094e-07 14.7675 0 17L8.5 17C8.5 15.8838 8.71986 14.7785 9.14702 13.7472C9.57419 12.7159 10.2003 11.7789 10.9896 10.9896C11.7789 10.2003 12.7159 9.57419 13.7472 9.14702C14.7785 8.71986 15.8838 8.5 17 8.5L17 0Z" fill="#5CE1E6"/>
<ellipse cx="17" cy="17.0002" rx="5.3125" ry="5.3125" fill="#5CE1E6"/>
</svg>
